<svg width="500" height="500" viewBox="0 0 500 500" fill="none" xmlns="http://www.w3.org/2000/svg">
<path d="M119.751 302.902L417 201.539L406.549 483.431L160.384 488.078L119.751 302.902Z" fill="#6D38E0"/>
<path d="M402.159 373.846C402.159 399.574 374.268 420.424 339.862 420.424C305.46 420.424 277.569 399.572 277.569 373.846C277.569 348.12 305.46 327.269 339.862 327.269C374.268 327.269 402.159 348.12 402.159 373.846Z" fill="white"/>
<path d="M305.808 381.285C305.808 387.207 301.259 392.011 295.642 392.011C290.027 392.011 285.477 387.207 285.477 381.285C285.477 375.353 290.027 370.544 295.642 370.544C301.259 370.544 305.808 375.353 305.808 381.285Z" fill="#002547"/>
<path d="M144.217 381.278C144.217 407.005 172.109 427.855 206.514 427.855C240.916 427.855 268.807 407.003 268.807 381.278C268.807 355.552 240.916 334.7 206.514 334.7C172.109 334.7 144.217 355.552 144.217 381.278Z" fill="white"/>
<path d="M240.569 388.716C240.569 394.639 245.117 399.443 250.734 399.443C256.349 399.443 260.899 394.639 260.899 388.716C260.899 382.785 256.349 377.976 250.734 377.976C245.117 377.976 240.569 382.785 240.569 388.716Z" fill="#002547"/>
<path d="M376.944 214.957L359.662 265.695L320.334 274.74L334.855 229.34L376.944 214.957Z" fill="#D2CCFF"/>
<path d="M168.69 286.146L159.803 311.706L123.508 320.057L119.743 302.876L168.69 286.146Z" fill="#D2CCFF"/>
<path d="M278.164 248.73L265.359 287.408L212.334 299.604L224.056 267.211L278.164 248.73Z" fill="#D2CCFF"/>
<path d="M105.956 239.205L176.267 259.702L222.598 221.729L143.678 203.834L105.956 239.205Z" fill="#6D38E0"/>
<path d="M370.958 99.8281L350.056 11L275.31 80.9636L357.901 110.324L370.958 99.8281Z" fill="#6D38E0"/>
<path d="M325.444 137.075L233.788 119.689L185.68 164.711L259.025 191.552L325.444 137.075Z" fill="#6D38E0"/>
<path d="M324.318 138.201L359.407 109.333L276.746 79.5302L233.184 120.252L324.318 138.201Z" fill="#D2CCFF"/>
<path d="M186.534 163.857L142.412 205.1L221.593 222.734L269.677 183.165L186.534 163.857Z" fill="#D2CCFF"/>
<path d="M82.9999 260.647L120.68 307.156L127.389 300.259L177.795 258.773L106.368 238.793L82.9999 260.647Z" fill="#D2CCFF"/>
</svg>